<?xml version="1.0" encoding="UTF-8"?>
<svg width="197px" height="28px" viewBox="0 0 197 28" version="1.1" xmlns="http://www.w3.org/2000/svg" xmlns:xlink="http://www.w3.org/1999/xlink">
    <!-- Generator: Sketch 47.1 (45422) - http://www.bohemiancoding.com/sketch -->
    <title>Logo</title>
    <desc>Created with Sketch.</desc>
    <defs></defs>
    <g id="Symbols" stroke="none" stroke-width="1" fill="none" fill-rule="evenodd">
        <g id="Navbar" transform="translate(-235.000000, -18.000000)">
            <g id="Logo" transform="translate(235.000000, 18.000000)">
                <polygon id="Path" fill="#D60008" points="110.032024 25.8047942 110.162542 25.5821006 118.077796 19.6255991 115.529543 18.7010257 115.38074 18.4701193 115.38074 18.3210251 116.937183 13.2644585 112.528575 14.00298 111.850764 13.6090808 111.016269 11.2336822 107.365233 15.5776292 109.122497 6.354007 106.003621 8.42963788 105.65778 8.49849917 105.485332 8.37688634 105.322658 8.2246334 102.788906 2.08429119 100.082707 8.21610471 99.9083682 8.37657047 99.7387578 8.49818329 99.3963845 8.42963788 96.268997 6.3568499 98.0369798 15.5886849 94.3887813 11.2374727 93.5400991 13.6106602 93.289782 13.9537031 88.4514738 13.2644585 90.018005 18.321341 90.018005 18.4713828 89.8777139 18.6909176 87.3244163 19.6268626 95.2339956 25.5789418 95.3585237 25.7630984 0 25.8051101 0 27.0957854 96.6271333 27.0957854 96.6271333 25.8051101 96.619567 25.3752008 96.1592862 24.6951166 89.9423424 20.0169713 90.5678199 19.7885918 90.8209743 19.5324152 91.2790483 18.8403277 91.2790483 18.1296033 90.2623321 14.8479523 92.7153767 15.2576454 93.3547257 15.2664899 94.0728899 15.0216849 94.6658956 14.2083004 94.8351907 13.7344842 97.1526731 16.4984121 97.4222211 16.7350043 97.7437872 16.9400088 98.1019235 17.01424 98.8497222 16.8442979 99.156471 16.5764338 99.3084268 16.2523435 99.379991 15.8581284 98.0716585 9.06676275 98.9067845 9.6198642 100.026906 9.84445309 100.67256 9.38232434 101.129689 8.96915661 102.750129 5.29708097 104.26149 8.96094379 104.656196 9.33020456 105.374045 9.84382133 106.494167 9.6198642 107.321412 9.06960564 106.097884 15.4901312 106.005513 15.8612872 106.082437 16.1989602 106.219575 16.5637987 106.541456 16.843982 106.875318 16.9826522 107.654958 16.9412723 107.906536 16.7852288 108.166311 16.5726433 110.559456 13.7389065 110.724968 14.2098798 111.330269 15.0226325 112.04528 15.2664899 115.130107 14.8479523 114.119696 18.1302351 114.119696 18.8412753 114.496748 19.4291233 114.817369 19.7860648 115.456402 20.0182348 109.245133 24.6925896 108.770981 25.369515 108.770981 25.8047942 108.770666 27.0954696 196.965517 27.0954696 196.965517 25.8047942"></polygon>
                <path d="M87.1402708,12.9314487 C86.7912156,12.9314487 86.1718323,13.2957581 85.2950841,14.0176659 C84.4148579,14.745965 83.0692248,16.0136977 81.2626113,17.8285336 C80.8917401,18.199554 80.4108407,18.6948869 79.801575,19.3177281 C78.6257269,20.5432776 77.9494324,21.1536556 77.767949,21.1536556 C77.6642442,21.1536556 77.5893112,21.132564 77.5431499,21.0929373 C77.4928783,21.054589 77.4615772,21.004097 77.4615772,20.9414613 C77.4615772,20.8813822 77.5216501,20.7362976 77.621877,20.5004553 C77.9744101,19.6635024 78.1448275,18.8911026 78.1448275,18.1870908 C78.1448275,17.5498689 77.9529103,17.0206616 77.5791936,16.5972319 C77.2016828,16.1856262 76.6879014,15.9405163 76.0289965,15.8619022 C76.6063287,15.5388173 77.1906168,14.8964823 77.767949,13.9396909 C78.333899,12.9857756 78.7297479,12.5137712 78.9681424,12.5137712 C79.0715311,12.5137712 79.1464641,12.5137712 79.1888313,12.5156886 C79.2213972,12.524317 79.2637644,12.5463673 79.2994919,12.5776852 C79.149942,12.7007195 79.0389652,12.836217 78.9681424,12.9928061 C78.9036431,13.1503539 78.8685479,13.3318695 78.8685479,13.5172198 C78.8685479,13.9035795 78.9899584,14.2237883 79.2460587,14.4788048 C79.5094309,14.7357388 79.8306629,14.8600514 80.2293573,14.8600514 C80.6640954,14.8600514 81.0093565,14.7242343 81.2875889,14.4433326 C81.5544391,14.1656266 81.7005111,13.8125022 81.7005111,13.3730939 C81.7005111,12.8595456 81.5187115,12.4236526 81.1449948,12.0775587 C80.7598959,11.725393 80.2938566,11.5544232 79.7234802,11.5544232 C78.8789816,11.5544232 78.0774826,12.1306073 77.3439608,13.2957581 C76.6243506,14.4545176 76.0897017,15.1486228 75.7697345,15.3729607 C75.5341854,15.5388173 75.0959694,15.6382034 74.4474982,15.6925303 C73.8066152,15.7427027 73.4964493,15.8935396 73.4964493,16.1530301 C73.4964493,16.2712709 73.5286989,16.3668222 73.6029996,16.4425602 C73.6886826,16.5208547 73.7743655,16.5572857 73.8774379,16.5572857 C74.0478553,16.5572857 74.2947866,16.519896 74.6182317,16.4348905 C74.9495812,16.3524415 75.1924022,16.3128149 75.3451139,16.3128149 C75.4734802,16.3128149 75.5803467,16.3415762 75.6657135,16.4083662 C75.7409627,16.4732389 75.779852,16.5572857 75.779852,16.6640219 C75.779852,16.8889989 75.4946638,17.5115206 74.9246035,18.5306281 C74.3513816,19.5500552 74.0699874,20.3879668 74.0699874,21.0510737 C74.0699874,21.616712 74.2299711,22.0701812 74.5436149,22.411162 C74.8537807,22.7566168 75.270497,22.9269474 75.779852,22.9269474 C76.9768837,22.9269474 78.697182,21.7013979 80.9562394,19.2506185 C81.2626113,18.9157095 81.5010058,18.6590951 81.6613056,18.4734251 C83.2431201,16.7592537 84.4727176,15.5046233 85.3346057,14.708895 C86.2034496,13.9138057 86.9413979,13.3443327 87.5402299,12.9998366 C87.5070317,12.9998366 87.4608704,12.9988779 87.4074371,12.9857756 C87.2582034,12.9487055 87.1725205,12.9314487 87.1402708,12.9314487 M48.6379964,15.966753 C48.0284145,16.9740364 47.2126876,18.0880561 46.169,19.31776 C45.3570672,20.2841386 44.5726415,21.0364055 43.8283699,21.5838282 C43.0768262,22.1207052 42.4460607,22.3942568 41.9155221,22.3942568 C41.6587894,22.3942568 41.477306,22.333219 41.3669616,22.2175348 C41.2600951,22.0951396 41.1993898,21.9177785 41.1993898,21.6707512 C41.1993898,21.1520897 41.4238728,20.4531909 41.8835886,19.5893942 C42.3429882,18.7246388 43.0588043,17.6051864 44.053169,16.2227282 C45.0114899,14.8901229 45.8164669,13.9036115 46.4861217,13.2699049 C47.1519824,12.6365179 47.7040208,12.3089591 48.1460309,12.3089591 C48.5595854,12.3089591 48.8944128,12.453085 49.1505131,12.7215234 C49.4179956,12.9928381 49.5460458,13.3408494 49.5460458,13.7633204 C49.5460458,14.2209441 49.2469459,14.9575521 48.6379964,15.966753 L48.6379964,15.966753 Z M77.1802147,1.80854037 L80.5389224,1.45222024 L69.5594923,22.6773955 L66.0689404,22.9269794 L70.8033177,14.1365777 C70.4609021,14.4676519 70.0337521,14.8965143 69.5174413,15.429876 C68.9246166,16.0472845 68.5041062,16.4384377 68.2486383,16.6055726 C68.1945727,16.6630952 68.1436688,16.7148655 68.0889709,16.7730271 C67.7677389,17.1152862 67.5400942,17.3699832 67.3690445,17.5259332 L66.7597788,18.1727421 C63.6957444,21.3393575 61.2988355,22.9269794 59.5779048,22.9269794 C58.4874235,22.9269794 57.6255354,22.5917508 56.9739025,21.924809 C56.3292253,21.2591455 56.0019861,20.3592374 56.0019861,19.2292393 C56.0019861,18.5383297 56.1271907,17.8745836 56.3621073,17.2386401 C55.8992298,17.7055313 55.5201381,18.0835822 55.238744,18.3638447 C54.9927613,18.6195004 54.6509781,18.9914795 54.1843064,19.4590098 C51.9366312,21.7714156 50.1979949,22.9269794 48.9759855,22.9269794 C48.3351025,22.9269794 47.8112035,22.7323615 47.408715,22.3511149 C47.0138147,21.9692292 46.8168388,21.4649483 46.8168388,20.8389114 C46.8168388,20.4570257 46.8598384,20.1077361 46.9385655,19.7747446 C47.0097045,19.4452683 47.1276371,19.1106789 47.2914148,18.764585 C46.3691376,20.1221168 45.4389561,21.1520897 44.5087746,21.8471536 C43.5608873,22.5454132 42.6496762,22.890868 41.7628104,22.890868 C40.8253569,22.890868 40.0665413,22.5981422 39.4857311,22.0040623 C38.9011269,21.4109411 38.6134093,20.637263 38.6134093,19.6724823 C38.6134093,18.9090305 38.7477829,18.1868031 39.0143169,17.502285 C38.8056426,17.7256642 38.5331013,18.0084833 38.1925828,18.3638447 C35.2999143,21.4026323 33.2700824,22.9269794 32.1043519,22.9269794 C31.3847417,22.9269794 30.8077257,22.7042393 30.3840536,22.2606767 C29.9565874,21.8212685 29.7428544,21.2236733 29.7428544,20.4630976 C29.7428544,19.8543174 29.9565874,19.0227973 30.3840536,17.9905874 C30.8077257,16.9523057 31.4634688,15.6679554 32.3500185,14.1365777 C32.0088676,14.4676519 31.5877249,14.8965143 31.074892,15.429876 C30.2518932,16.2757768 29.7602439,16.7014435 29.5895104,16.7014435 C29.5041436,16.7014435 29.4399604,16.6726823 29.3865272,16.6228294 C29.3334101,16.5646677 29.3049545,16.4994755 29.3049545,16.4131917 C29.3049545,16.3016619 29.5683268,15.9744226 30.0919096,15.4410609 C30.3944873,15.1374698 30.647742,14.8798967 30.8434532,14.6673829 L31.7372748,13.73392 C32.1549396,13.2807703 32.5428841,12.8362489 32.8919393,12.4022734 C33.2444724,11.9651021 33.5363003,11.5618053 33.7825992,11.1978155 L39.4468418,1.8440126 L42.8842767,1.45222024 L35.2145475,15.7296323 C34.89047,16.3272275 34.452254,17.1287081 33.9071714,18.1315176 C32.8204842,20.0770575 32.2757178,21.2236733 32.2757178,21.5617779 C32.2757178,21.706543 32.3288349,21.8254229 32.4252677,21.9177785 C32.5213843,22.0114124 32.6601844,22.0593478 32.8204842,22.0593478 C33.3086556,22.0593478 34.7978313,20.809511 37.2845334,18.3098374 C37.8432114,17.7387665 38.2782657,17.2993583 38.5988653,16.9842626 C40.0627472,15.5228708 41.17789,14.4788368 41.9442938,13.8598304 C42.5118247,13.401248 42.9579451,13.1113984 43.2769638,12.9931576 C43.8014951,12.6617639 44.3114825,12.3846971 44.8081906,12.1638744 C45.7592395,11.735012 46.6394657,11.5161068 47.4267369,11.5161068 C48.2070523,11.5161068 48.8156857,11.6842004 49.2754015,12.0191094 C49.7382791,12.3575336 50.0376951,12.8595775 50.1549953,13.5172518 L51.0213099,11.7858236 L54.5229279,11.5161068 L50.8467823,19.1573361 C50.5404104,19.7680336 50.2944277,20.2876538 50.1015621,20.7117227 C49.9200787,21.1373895 49.831234,21.3920865 49.831234,21.472618 C49.831234,21.6167439 49.8666454,21.7311498 49.9488504,21.8212685 C50.0161953,21.908511 50.1085179,21.9510137 50.2302445,21.9510137 C50.5720278,21.9510137 51.8009929,20.8814142 53.9244121,18.7543588 C54.4587448,18.2235536 54.8757772,17.8020413 55.1641271,17.4933371 C56.224572,16.437479 57.1196583,15.5829498 57.8522316,14.9198429 C58.1838972,14.5654402 58.5588786,14.215831 58.9828669,13.8716545 C59.8697327,13.1392009 60.8179361,12.5604604 61.8012347,12.1431024 C62.7842171,11.7254249 63.6495831,11.5161068 64.4298986,11.5161068 C65.2528974,11.5161068 65.8868246,11.6995398 66.3142908,12.0660861 C66.7493451,12.4339108 66.9662399,12.9605615 66.9662399,13.6588211 C66.9662399,14.1656586 66.802146,14.590047 66.4821787,14.9409345 C66.1647408,15.2857501 65.7767963,15.4631112 65.3164482,15.4631112 C64.9145921,15.4631112 64.5901984,15.3442313 64.3340981,15.108389 C64.0773655,14.874464 63.9489991,14.5731098 63.9489991,14.2084809 C63.9489991,13.8045449 64.1127769,13.4501422 64.4517145,13.136964 C64.7824317,12.8257031 65.2098978,12.6365179 65.7372747,12.5569451 C65.6199744,12.4776918 65.502358,12.4124996 65.3743079,12.377347 C65.2528974,12.3303702 65.1248472,12.3089591 65.0069146,12.3089591 C64.4874421,12.3089591 63.9278155,12.6042414 63.3432113,13.1906516 C62.7453278,13.7729075 62.0721951,14.6673829 61.3449968,15.8619341 C60.6465702,16.9967259 60.0695541,18.1094673 59.6136324,19.19153 C59.1539166,20.2767885 58.9265881,21.0169117 58.9265881,21.4026323 C58.9265881,21.7209236 59.0258664,21.96124 59.1972323,22.1207052 C59.3746055,22.2824074 59.6525217,22.3581454 60.0094812,22.3581454 C61.2488801,22.3581454 63.4469161,20.7305773 66.6206626,17.4789564 C67.0484449,17.0290024 67.379162,16.6892999 67.6147111,16.4528184 C67.6969161,16.3690911 67.7753271,16.2907966 67.855635,16.2099455 C67.976097,16.0399344 68.2037417,15.7839591 68.5448926,15.4410609 C68.8477865,15.1374698 69.0934531,14.8798967 69.2926422,14.6673829 L70.190574,13.73392 C70.5680848,13.3408494 70.91714,12.951294 71.1950562,12.5678105 C71.4944723,12.1888009 71.6794336,11.9053426 71.7828222,11.7276619 L77.1802147,1.80854037 Z M29.2580344,3.18067646 C29.7926833,3.87957523 30.0598496,4.64526405 30.0598496,5.47103195 C30.0598496,6.76592807 29.4540618,7.92724408 28.2465964,8.95497999 C27.0489323,9.9827159 25.3501338,10.7784443 23.13787,11.3389694 C24.4313345,11.717979 25.3893393,12.2871325 26.0238989,13.0505843 C26.6609878,13.8047686 26.9822198,14.7711471 26.9822198,15.9404524 C26.9822198,17.6376867 26.1481549,19.2256281 24.4952015,20.7074725 C22.838454,22.1816471 21.0650386,22.9272031 19.1515585,22.9272031 C18.2005095,22.9272031 17.4590834,22.7252351 16.9358168,22.3206599 C16.412234,21.9224762 16.1447515,21.350127 16.1447515,20.604571 C16.1447515,19.7363004 16.5760117,18.8568448 17.4378998,17.9642868 C18.3038982,17.0726876 18.9665972,16.6256097 19.4259968,16.6256097 C19.5040916,16.6256097 19.5755467,16.6508557 19.6397299,16.7013477 C19.703913,16.7470461 19.7355303,16.8084035 19.7355303,16.8745544 C19.7355303,16.9717036 19.5255913,17.1573735 19.1053972,17.4395535 C17.6124274,18.4548262 16.8640455,19.4991797 16.8640455,20.5684597 C16.8640455,21.0462163 16.9930441,21.4217106 17.2564164,21.7064471 C17.5023991,21.9838335 17.8441823,22.1346704 18.2608986,22.1346704 C18.7987092,22.1346704 19.3441079,21.9029824 19.9068962,21.4575024 C20.4665228,21.0101049 21.0650386,20.3329369 21.680944,19.4253591 C22.3540767,18.4120039 22.8599538,17.4395535 23.1985753,16.5249452 C23.5406747,15.6029869 23.7050847,14.7318401 23.7050847,13.9035156 C23.7050847,13.2909006 23.5760861,12.7690434 23.3193534,12.3373049 C23.0632531,11.9090816 22.7603592,11.6956091 22.3894881,11.6956091 C22.2898935,11.6956091 22.0799545,11.717979 21.7881267,11.7707079 C21.4776446,11.8291892 21.2142723,11.8550743 20.9970614,11.8550743 C20.7542404,11.8550743 20.5727569,11.8010671 20.423207,11.6956091 C20.2850393,11.5885533 20.2063122,11.4575297 20.2063122,11.3038167 C20.2063122,11.1641648 20.2632234,11.0472023 20.3773619,10.9644338 C20.4949783,10.8717586 20.6546458,10.8286167 20.8579452,10.8286167 C20.9012609,10.8286167 21.1143616,10.8599345 21.4814387,10.9222506 C21.8551554,10.9912776 22.2080047,11.0248324 22.5289205,11.0248324 C23.4442418,11.0248324 24.4060407,10.2770395 25.4250668,8.78688637 C26.4371372,7.29513536 26.9426981,5.73627474 26.9426981,4.12308728 C26.9426981,3.62967178 26.8573314,3.18067646 26.6862817,2.76939036 C26.5221878,2.36737177 26.2799991,2.02159744 25.9663553,1.73558262 C23.8435686,2.48944737 21.9481103,5.01596481 20.2736571,9.30586744 C19.7927577,10.5898982 19.3864751,11.5696986 19.0842136,12.2420731 C17.5235827,15.8155007 15.663852,18.433415 13.5157714,20.1076403 C11.360735,21.774835 8.75957815,22.6085922 5.71735974,22.6085922 C3.99358353,22.6085922 2.60400237,22.2343761 1.56031468,21.4853049 C0.513149083,20.7304815 0,19.7363004 0,18.5053182 C0,17.6086058 0.28866612,16.8454736 0.88686579,16.2226324 C1.48190373,15.5946781 2.20878589,15.2827781 3.07478425,15.2827781 C3.69416752,15.2827781 4.20036079,15.4505522 4.59557728,15.789296 C4.99806574,16.1251636 5.19061521,16.5537065 5.19061521,17.0682136 C5.19061521,17.5437332 5.06193273,17.9425561 4.79824429,18.2736302 C4.5386661,18.605663 4.22850021,18.7852612 3.87912883,18.7999614 L3.79376207,18.7999614 C2.33019639,18.9194804 1.61027004,19.3010465 1.61027004,19.9532881 C1.61027004,20.5208438 1.97703094,21.0040331 2.72541287,21.4108452 C3.47000073,21.8214922 4.38880001,22.0231406 5.47200935,22.0231406 C6.46574168,22.0231406 7.35292364,21.8071115 8.16169465,21.3779295 C8.9524438,20.9429953 9.73623713,20.2587967 10.4953689,19.3179837 C11.2643021,18.3362659 12.2545566,16.7553549 13.4515882,14.5627877 C14.652414,12.3651074 15.5038684,10.8570584 16.0059514,10.0351253 C17.4312602,7.73422403 18.9665972,5.82767165 20.6119624,4.30811809 C22.2510042,2.79783205 23.8435686,1.8304948 25.3678395,1.41505429 C24.7095669,1.11689583 23.9573909,0.883610009 23.1128923,0.735968843 C22.2582762,0.588327677 21.317661,0.519620208 20.2736571,0.519620208 C18.4461761,0.519620208 16.5121447,0.820974363 14.4671365,1.41505429 C12.4294003,2.02159744 10.5905371,2.82691289 8.98437729,3.83835075 C7.67352325,4.68137541 6.60485788,5.63177547 5.79956477,6.68060298 C4.98731585,7.73582187 4.5740775,8.67951097 4.5740775,9.50368103 C4.5740775,10.1981058 4.80551627,10.7570331 5.2544822,11.1814216 C5.70344812,11.6064492 6.31271386,11.818963 7.0857573,11.818963 C8.2897448,11.818963 9.62905442,11.307332 11.0825026,10.2911006 C12.5324728,9.2694365 13.626432,8.05091752 14.3703875,6.63362624 C14.652414,6.05999877 14.862353,5.44930122 14.9904032,4.80472929 C15.1190856,4.16590961 15.2398638,3.83835075 15.3577964,3.83835075 C15.5143021,3.83835075 15.6211687,3.93230422 15.6780798,4.11350019 C15.7391013,4.29917014 15.7599687,4.68936465 15.7599687,5.29494909 C15.7599687,7.43670471 15.0334027,9.26112769 13.5941824,10.7570331 C12.14769,12.2507015 10.4166418,12.9997727 8.41083913,12.9997727 C7.09650719,12.9997727 6.02752564,12.6613485 5.19409312,11.9876957 C4.3783663,11.307332 3.96481177,10.4390613 3.96481177,9.37617275 C3.96481177,8.40020712 4.37141049,7.37215164 5.1836594,6.29839771 C5.99559215,5.22592205 7.1246466,4.23781278 8.5891608,3.32831763 C10.2670919,2.27725314 12.1514841,1.4623506 14.2571975,0.879455604 C16.3584845,0.298797598 18.4461761,0 20.5262795,0 C21.5668054,0 22.5466262,0.10226228 23.4477197,0.286014813 C24.3630411,0.476797878 25.2394732,0.767606236 26.1203317,1.1562029 C26.7608986,0.990346263 27.2917533,0.854529173 27.7125799,0.767606236 C28.1356196,0.671415779 28.3958301,0.61932593 28.5137627,0.61932593 C28.6418129,0.61932593 28.7455177,0.641056665 28.8093846,0.677487602 C28.866612,0.710403273 28.8985455,0.767606236 28.8985455,0.835994135 C28.8985455,1.01271614 28.6098794,1.15716161 28.0290692,1.27955677 C27.623419,1.3476251 27.2810035,1.41505429 27.0138371,1.49111186 C27.9787977,1.91358291 28.7274958,2.47506673 29.2580344,3.18067646 Z" id="Path" fill="#000000"></path>
                <path d="M195.518725,12.9314487 C195.173493,12.9314487 194.567461,13.2957581 193.693436,14.0176659 C192.826917,14.745965 191.495398,16.0136977 189.708572,17.8285336 C189.349269,18.199554 188.873011,18.6948869 188.267917,19.3177281 C187.105261,20.5432776 186.431997,21.1536556 186.248749,21.1536556 C186.157125,21.1536556 186.083012,21.132564 186.026725,21.0929373 C185.977316,21.054589 185.952925,21.004097 185.952925,20.9414613 C185.952925,20.8813822 186.006086,20.7362976 186.111469,20.5004553 C186.452948,19.6635024 186.629317,18.8911026 186.629317,18.1870908 C186.629317,17.5498689 186.442942,17.0206616 186.061748,16.5972319 C185.688685,16.1856262 185.174277,15.9405163 184.539788,15.8619022 C185.110484,15.5388173 185.671486,14.8964823 186.248749,13.9396909 C186.812565,12.9857756 187.210957,12.5137712 187.436421,12.5137712 C187.542117,12.5137712 187.615917,12.5137712 187.658133,12.5156886 C187.696596,12.524317 187.731932,12.5463673 187.771021,12.5776852 C187.615917,12.7007195 187.510221,12.836217 187.436421,12.9928061 C187.369189,13.1503539 187.337605,13.3318695 187.337605,13.5172198 C187.337605,13.9035795 187.46394,14.2237883 187.71786,14.4788048 C187.971781,14.7357388 188.299501,14.8600514 188.683196,14.8600514 C189.116612,14.8600514 189.462157,14.7242343 189.737029,14.4433326 C190.004709,14.1656266 190.138861,13.8125022 190.138861,13.3730939 C190.138861,12.8595456 189.959053,12.4236526 189.582238,12.0775587 C189.218869,11.725393 188.746364,11.5544232 188.18286,11.5544232 C187.337605,11.5544232 186.565837,12.1306073 185.840037,13.2957581 C185.117676,14.4545176 184.592636,15.1486228 184.276174,15.3729607 C184.043205,15.5388173 183.609789,15.6382034 182.9753,15.6925303 C182.341124,15.7427027 182.024036,15.8935396 182.024036,16.1530301 C182.024036,16.2712709 182.056245,16.3668222 182.136924,16.4425602 C182.210724,16.5208547 182.299221,16.5572857 182.411171,16.5572857 C182.562836,16.5572857 182.813629,16.519896 183.141036,16.4348905 C183.472509,16.3524415 183.712045,16.3128149 183.859957,16.3128149 C183.990357,16.3128149 184.0923,16.3415762 184.169852,16.4083662 C184.250844,16.4732389 184.293686,16.5572857 184.293686,16.6640219 C184.293686,16.8889989 184.007869,17.5115206 183.440613,18.5306281 C182.876484,19.5500552 182.595045,20.3879668 182.595045,21.0510737 C182.595045,21.616712 182.749836,22.0701812 183.060044,22.411162 C183.373693,22.7566168 183.786157,22.9269474 184.293686,22.9269474 C185.470101,22.9269474 187.168116,21.7013979 189.391172,19.2506185 C189.708572,18.9157095 189.948734,18.6590951 190.10634,18.4734251 C191.674893,16.7592537 192.890397,15.5046233 193.735965,14.708895 C194.599045,13.9138057 195.321092,13.3443327 195.923372,12.9998366 C195.888661,12.9998366 195.836438,12.9988779 195.776085,12.9857756 C195.645685,12.9487055 195.561566,12.9314487 195.518725,12.9314487 M170.428342,19.0906739 C169.94239,19.0906739 169.526486,19.2293671 169.170622,19.520495 C168.822263,19.8122621 168.649334,20.1363057 168.649334,20.5002955 C168.649334,20.5488701 168.659966,20.6124644 168.681231,20.6875633 C168.704997,20.7668165 168.737518,20.869718 168.786301,20.9994632 C168.399166,21.3608965 168.007653,21.6440352 167.584869,21.8360965 C167.158958,22.0303948 166.781517,22.1345745 166.443478,22.1345745 C166.112943,22.1345745 165.869655,22.045095 165.704231,21.8722079 C165.544749,21.702836 165.46063,21.4286452 165.46063,21.0512335 C165.46063,20.6373908 165.573206,20.1327904 165.78835,19.5425453 C166.010062,18.9433523 166.344974,18.2607516 166.771198,17.4934649 C167.701197,15.8793187 168.599926,14.6023185 169.483957,13.658949 C170.372366,12.7143012 171.090974,12.2419773 171.661983,12.2419773 C172.077574,12.2419773 172.39435,12.4008034 172.627319,12.7143012 C172.856222,13.0217271 172.97599,13.4636919 172.97599,14.0261345 C172.97599,14.6416256 172.761471,15.3945316 172.320863,16.2944397 C171.887134,17.1898737 171.281415,18.1166257 170.499327,19.0906739 L170.428342,19.0906739 Z M156.662846,19.0906739 C156.186589,19.0906739 155.768183,19.2293671 155.419824,19.520495 C155.059582,19.8122621 154.890405,20.1363057 154.890405,20.5002955 C154.890405,20.5488701 154.90135,20.6124644 154.922302,20.6875633 C154.943253,20.7668165 154.982342,20.869718 155.028311,20.9994632 C154.647117,21.3608965 154.245597,21.6440352 153.822501,21.8360965 C153.406909,22.0303948 153.019149,22.1345745 152.688301,22.1345745 C152.353076,22.1345745 152.106661,22.045095 151.94155,21.8722079 C151.783006,21.702836 151.709206,21.4286452 151.709206,21.0512335 C151.709206,20.6373908 151.814902,20.1327904 152.036926,19.5425453 C152.254885,18.9433523 152.582918,18.2607516 153.019149,17.4934649 C153.939142,15.8793187 154.844437,14.6023185 155.725654,13.658949 C156.610311,12.7143012 157.339238,12.2419773 157.902429,12.2419773 C158.311453,12.2419773 158.639173,12.4008034 158.864637,12.7143012 C159.093854,13.0217271 159.220501,13.4636919 159.220501,14.0261345 C159.220501,14.6416256 159.001917,15.3945316 158.558181,16.2944397 C158.131958,17.1898737 157.518733,18.1166257 156.736646,19.0906739 L156.662846,19.0906739 Z M185.671392,1.80834863 L180.329992,11.7277897 C180.23399,11.9054705 180.047615,12.1886091 179.758984,12.5679383 C179.473167,12.9514218 179.138254,13.3409772 178.754872,13.7337283 L177.869902,14.6671911 C177.676335,14.8797049 177.426479,15.1375976 177.130656,15.4411888 C176.952411,15.6230239 176.807314,15.7792934 176.690047,15.9128735 C176.317297,16.2755851 175.919217,16.669934 175.487677,17.1045487 C175.371974,17.2199133 175.181534,17.4142116 174.931053,17.6701869 C173.356246,19.2645197 172.05631,20.1363057 171.038126,20.2874621 C172.140742,19.146279 172.934087,18.1418717 173.405967,17.2652922 C173.881911,16.3919084 174.117695,15.5153289 174.117695,14.6310798 C174.117695,13.6180441 173.838757,12.8341398 173.282446,12.2761712 C172.733015,11.7217179 171.939982,11.446888 170.911479,11.446888 C170.153157,11.446888 169.304149,11.6277644 168.388847,11.9875998 C167.657418,12.2723364 166.949442,12.6449546 166.267422,13.1051348 C165.965657,13.2630022 165.584776,13.5279254 165.121965,13.9037393 C164.336437,14.5540635 163.198486,15.6201478 161.719054,17.1045487 C161.609606,17.2199133 161.423231,17.4142116 161.169623,17.6701869 C159.601069,19.2645197 158.301134,20.1363057 157.268565,20.2874621 C158.389318,19.146279 159.178285,18.1418717 159.643598,17.2652922 C160.12267,16.3919084 160.355013,15.5153289 160.355013,14.6310798 C160.355013,13.6180441 160.080141,12.8341398 159.53071,12.2761712 C158.977213,11.7217179 158.184493,11.446888 157.152237,11.446888 C156.391414,11.446888 155.552725,11.6277644 154.626478,11.9875998 C153.706485,12.3467961 152.825581,12.8405312 151.980013,13.4819074 C150.884277,14.317582 150.017758,15.2596732 149.379829,16.3129747 C148.735647,17.3592456 148.417933,18.3639725 148.417933,19.3178879 C148.417933,20.3881265 148.735647,21.2589538 149.379829,21.9246173 C150.017758,22.5918787 150.863326,22.9271072 151.917158,22.9271072 C152.670477,22.9271072 153.375325,22.7922488 154.012628,22.5340366 C154.668694,22.2755047 155.397934,21.8274681 156.208166,21.1902463 L156.408925,21.1902463 C157.180381,21.1902463 157.920566,21.01672 158.618222,20.6584824 C159.316191,20.3095124 160.066382,19.7221434 160.873174,18.9091583 C161.354435,18.4422671 161.986734,17.8008909 162.766633,16.9856688 C162.373869,17.7913038 162.180302,18.5700949 162.180302,19.3178879 C162.180302,20.3881265 162.49051,21.2589538 163.135631,21.9246173 C163.776686,22.5918787 164.622254,22.9271072 165.668582,22.9271072 C166.433158,22.9271072 167.138007,22.7922488 167.782502,22.5340366 C168.427623,22.2755047 169.157175,21.8274681 169.963654,21.1902463 L170.171294,21.1902463 C170.943375,21.1902463 171.676055,21.01672 172.373711,20.6584824 C173.071367,20.3095124 173.82875,19.7221434 174.63523,18.9091583 C175.181534,18.3789923 175.921719,17.6257667 176.851718,16.6472445 C176.920202,16.5759805 176.983057,16.5123861 177.050289,16.4430395 C177.303272,16.2330823 177.65038,15.8984929 178.098806,15.4300038 C178.334277,15.1826569 178.54817,14.9599169 178.745178,14.7566706 C178.936869,14.5767529 179.119804,14.4099376 179.294922,14.2539876 L174.68839,22.9271072 L178.134455,22.6775233 L188.997063,1.45234807 L185.671392,1.80834863 Z M148.791184,3.18067646 C148.259577,2.47506673 147.520018,1.91358291 146.561561,1.49111186 C146.824863,1.41505429 147.163528,1.3476251 147.565361,1.27955677 C148.147001,1.15716161 148.432193,1.01271614 148.432193,0.835994135 C148.432193,0.767606236 148.400296,0.710403273 148.344009,0.677487602 C148.273649,0.641056665 148.178272,0.61932593 148.051625,0.61932593 C147.942176,0.61932593 147.670744,0.671415779 147.259217,0.767606236 C146.843,0.854529173 146.31452,0.990346263 145.680032,1.1562029 C144.817578,0.767606236 143.936048,0.476797878 143.040759,0.286014813 C142.142656,0.10226228 141.18076,0 140.144752,0 C138.08368,0 136.022921,0.298797598 133.947464,0.879455604 C131.868881,1.4623506 129.997311,2.27725314 128.338384,3.32831763 C126.900231,4.23781278 125.776664,5.22592205 124.983631,6.29839771 C124.173087,7.37215164 123.767814,8.40020712 123.767814,9.37617275 C123.767814,10.4390613 124.180279,11.307332 124.99395,11.9876957 C125.807935,12.6613485 126.858015,12.9997727 128.168895,12.9997727 C130.152415,12.9997727 131.857936,12.2507015 133.292337,10.7570331 C134.71892,9.26112769 135.437527,7.43670471 135.437527,5.29494909 C135.437527,4.68936465 135.405944,4.29917014 135.345903,4.11350019 C135.289928,3.93230422 135.187359,3.83835075 135.039448,3.83835075 C134.923119,3.83835075 134.803039,4.16590961 134.676391,4.80472929 C134.542551,5.44930122 134.341791,6.05999877 134.052847,6.63362624 C133.326735,8.05091752 132.238504,9.2694365 130.808168,10.2911006 C129.37064,11.307332 128.04944,11.818963 126.847383,11.818963 C126.093439,11.818963 125.483967,11.6064492 125.050551,11.1814216 C124.603688,10.7570331 124.374472,10.1981058 124.374472,9.50368103 C124.374472,8.67951097 124.783497,7.73582187 125.579344,6.68060298 C126.379256,5.63177547 127.440281,4.68137541 128.739904,3.83835075 C130.332536,2.82691289 132.14,2.02159744 134.158231,1.41505429 C136.177087,0.820974363 138.08368,0.519620208 139.901463,0.519620208 C140.927777,0.519620208 141.857464,0.588327677 142.70272,0.735968843 C143.5486,0.883610009 144.289098,1.11689583 144.939847,1.41505429 C143.422265,1.8304948 141.853086,2.79783205 140.229183,4.30811809 C138.608407,5.82767165 137.08676,7.73422403 135.68019,10.0351253 C135.184232,10.8570584 134.341791,12.3651074 133.154119,14.5627877 C131.963319,16.7553549 130.990791,18.3362659 130.23028,19.3179837 C129.476023,20.2587967 128.704568,20.9429953 127.915288,21.3779295 C127.129447,21.8071115 126.241663,22.0231406 125.261943,22.0231406 C124.184344,22.0231406 123.281863,21.8214922 122.545118,21.4108452 C121.805872,21.0040331 121.435936,20.5208438 121.435936,19.9532881 C121.435936,19.3010465 122.154856,18.9194804 123.602703,18.7999614 L123.687135,18.7999614 C124.032993,18.7852612 124.328816,18.605663 124.596496,18.2736302 C124.857296,17.9425561 124.987071,17.5437332 124.987071,17.0682136 C124.987071,16.5537065 124.786311,16.1251636 124.395423,15.789296 C124.004536,15.4505522 123.5042,15.2827781 122.894103,15.2827781 C122.038215,15.2827781 121.318982,15.5946781 120.727335,16.2226324 C120.135375,16.8454736 119.846743,17.6086058 119.846743,18.5053182 C119.846743,19.7363004 120.357399,20.7304815 121.39372,21.4853049 C122.429728,22.2343761 123.792831,22.6085922 125.512111,22.6085922 C128.50756,22.6085922 131.086167,21.774835 133.211345,20.1076403 C135.345903,18.433415 137.175257,15.8155007 138.725673,12.2420731 C139.024624,11.5696986 139.415824,10.5898982 139.901463,9.30586744 C141.551321,5.01596481 143.422265,2.48944737 145.521488,1.73558262 C145.838576,2.02159744 146.074359,2.36737177 146.243848,2.76939036 C146.409584,3.18067646 146.497143,3.62967178 146.497143,4.12308728 C146.497143,5.73627474 145.997432,7.29513536 144.986754,8.78688637 C143.988896,10.2770395 143.037945,11.0248324 142.132336,11.0248324 C141.811809,11.0248324 141.473456,10.9912776 141.092576,10.9222506 C140.726705,10.8599345 140.522193,10.8286167 140.472472,10.8286167 C140.272024,10.8286167 140.12036,10.8717586 140.003719,10.9644338 C139.891144,11.0472023 139.834543,11.1641648 139.834543,11.3038167 C139.834543,11.4575297 139.901463,11.5885533 140.049688,11.6956091 C140.197912,11.8010671 140.388353,11.8550743 140.610064,11.8550743 C140.828336,11.8550743 141.086009,11.8291892 141.392465,11.7707079 C141.695481,11.717979 141.889048,11.6956091 141.994431,11.6956091 C142.350295,11.6956091 142.657064,11.9090816 142.910984,12.3373049 C143.168345,12.7690434 143.295618,13.2909006 143.295618,13.9035156 C143.295618,14.7318401 143.126442,15.6029869 142.794344,16.5249452 C142.460057,17.4395535 141.96316,18.4120039 141.286456,19.4253591 C140.680424,20.3329369 140.092216,21.0101049 139.542472,21.4575024 C138.988663,21.9029824 138.442984,22.1346704 137.911064,22.1346704 C137.498912,22.1346704 137.163374,21.9838335 136.907265,21.7064471 C136.653657,21.4217106 136.526384,21.0462163 136.526384,20.5684597 C136.526384,19.4991797 137.266568,18.4548262 138.73912,17.4395535 C139.158151,17.1573735 139.362664,16.9717036 139.362664,16.8745544 C139.362664,16.8084035 139.330767,16.7470461 139.2676,16.7013477 C139.20412,16.6508557 139.1372,16.6256097 139.052455,16.6256097 C138.608407,16.6256097 137.953905,17.0726876 137.09708,17.9642868 C136.244632,18.8568448 135.821223,19.7363004 135.821223,20.604571 C135.821223,21.350127 136.075769,21.9224762 136.589551,22.3206599 C137.110839,22.7252351 137.847896,22.9272031 138.79916,22.9272031 C140.680424,22.9272031 142.428473,22.1816471 144.073953,20.7074725 C145.711928,19.2256281 146.529665,17.6376867 146.529665,15.9404524 C146.529665,14.7711471 146.21289,13.8047686 145.584343,13.0505843 C144.954232,12.2871325 144.002968,11.717979 142.745248,11.3389694 C144.922335,10.7784443 146.603465,9.9827159 147.794264,8.95497999 C148.978497,7.92724408 149.573584,6.76592807 149.573584,5.47103195 C149.573584,4.64526405 149.316224,3.87957523 148.791184,3.18067646" id="Path" fill="#000000"></path>
                <path d="M191.57972,7.03091166 C191.819445,6.61070326 192.142365,6.28545025 192.559264,6.06286003 C192.975855,5.83718685 193.403231,5.72866642 193.840775,5.72866642 C194.277703,5.72866642 194.701073,5.83718685 195.121362,6.06286003 C195.534872,6.28545025 195.857791,6.61070326 196.097208,7.03091166 C196.319678,7.45112005 196.44447,7.8852018 196.44447,8.33685645 C196.44447,8.7897443 196.329846,9.22012648 196.097208,9.63293576 C195.871349,10.0472865 195.548121,10.3700732 195.131838,10.5997542 C194.722642,10.828202 194.288179,10.9487461 193.840775,10.9487461 C193.392755,10.9487461 192.96199,10.828202 192.53862,10.5997542 C192.129423,10.3700732 191.805887,10.0472865 191.576947,9.63293576 C191.341228,9.22012648 191.226296,8.7897443 191.226296,8.33685645 C191.226296,7.8852018 191.341228,7.45112005 191.57972,7.03091166 M192.285029,11.0544918 C192.785123,11.3276427 193.295386,11.4636015 193.840775,11.4636015 C194.389554,11.4636015 194.898892,11.3276427 195.392824,11.0544918 C195.899389,10.7724003 196.277772,10.3879544 196.555705,9.89437136 C196.825935,9.39431412 196.965517,8.87637567 196.965517,8.33685645 C196.965517,7.79517916 196.825935,7.27045819 196.544612,6.76700968 C196.264214,6.27034371 195.878436,5.88558943 195.381423,5.61490494 C194.878556,5.34391214 194.368601,5.21072797 193.840775,5.21072797 C193.316339,5.21072797 192.805768,5.34391214 192.305982,5.61490494 C191.7988,5.88558943 191.410249,6.27034371 191.132624,6.76700968 C190.858081,7.27045819 190.712644,7.79517916 190.712644,8.33685645 C190.712644,8.87637567 190.847604,9.39431412 191.122148,9.89437136 C191.399773,10.3879544 191.78894,10.7724003 192.285029,11.0544918 M193.014741,7.15407618 L193.628844,7.15407618 C193.893219,7.15407618 194.076248,7.17411547 194.170535,7.21296085 C194.274683,7.25427261 194.350483,7.31377387 194.402865,7.38992316 C194.462026,7.4700803 194.486368,7.55886975 194.486368,7.65690809 C194.486368,7.80982325 194.430905,7.93869127 194.316281,8.02871391 C194.19457,8.12490248 193.975489,8.17176357 193.670133,8.17176357 L193.014741,8.17176357 L193.014741,7.15407618 Z M193.014741,8.6354418 L193.330266,8.6354418 C193.524388,8.6354418 193.670133,8.67151252 193.767502,8.75567751 C193.90955,8.85556564 194.097817,9.11669294 194.330147,9.53628475 L194.631805,10.0668634 L195.295517,10.0668634 L194.889094,9.40433376 C194.690966,9.09079602 194.517181,8.87622152 194.389616,8.74427054 C194.31967,8.67151252 194.222609,8.61262785 194.10059,8.56052571 C194.392389,8.54171961 194.628108,8.43443236 194.795114,8.25500368 C194.975678,8.07249204 195.055792,7.85791754 195.055792,7.61220507 C195.055792,7.44110041 195.007107,7.27523679 194.902959,7.11893036 C194.809288,6.96231564 194.660461,6.863969 194.483287,6.79244416 C194.309194,6.73232631 194.02479,6.70211323 193.622373,6.70211323 L192.47305,6.70211323 L192.47305,10.0668634 L193.014741,10.0668634 L193.014741,8.6354418 Z" id="Path" fill="#000000"></path>
            </g>
        </g>
    </g>
</svg>